<?xml version="1.0" encoding="UTF-8" standalone="no"?>
<!-- Created with Inkscape (http://www.inkscape.org/) -->

<svg
   xmlns:dc="http://purl.org/dc/elements/1.1/"
   xmlns:cc="http://creativecommons.org/ns#"
   xmlns:rdf="http://www.w3.org/1999/02/22-rdf-syntax-ns#"
   xmlns:svg="http://www.w3.org/2000/svg"
   xmlns="http://www.w3.org/2000/svg"
   xmlns:sodipodi="http://sodipodi.sourceforge.net/DTD/sodipodi-0.dtd"
   xmlns:inkscape="http://www.inkscape.org/namespaces/inkscape"
   width="210mm"
   height="297mm"
   viewBox="0 0 210 297"
   version="1.1"
   id="svg8"
   inkscape:version="0.92.3 (2405546, 2018-03-11)"
   sodipodi:docname="logo.svg">
  <defs
     id="defs2">
    <clipPath
       id="clipPath833"
       clipPathUnits="userSpaceOnUse">
      <path
         inkscape:connector-curvature="0"
         id="path831"
         d="M 0,799.92 H 799.92 V 0 H 0 Z" />
    </clipPath>
  </defs>
  <sodipodi:namedview
     id="base"
     pagecolor="#ffffff"
     bordercolor="#666666"
     borderopacity="1.0"
     inkscape:pageopacity="0.0"
     inkscape:pageshadow="2"
     inkscape:zoom="0.49497475"
     inkscape:cx="384.49909"
     inkscape:cy="666.26183"
     inkscape:document-units="mm"
     inkscape:current-layer="layer1"
     showgrid="false"
     inkscape:window-width="1366"
     inkscape:window-height="705"
     inkscape:window-x="-8"
     inkscape:window-y="-8"
     inkscape:window-maximized="1" />
  <metadata
     id="metadata5">
    <rdf:RDF>
      <cc:Work
         rdf:about="">
        <dc:format>image/svg+xml</dc:format>
        <dc:type
           rdf:resource="http://purl.org/dc/dcmitype/StillImage" />
        <dc:title></dc:title>
      </cc:Work>
    </rdf:RDF>
  </metadata>
  <g
     inkscape:label="Livello 1"
     inkscape:groupmode="layer"
     id="layer1">
    <rect
       style="opacity:1;fill:#393431;fill-opacity:1;fill-rule:nonzero;stroke:none;stroke-width:0.89543539;stroke-linecap:round;stroke-linejoin:round;stroke-miterlimit:4;stroke-dasharray:none;stroke-opacity:1"
       id="rect1499"
       width="243.6077"
       height="138.80653"
       x="-18.049438"
       y="48.468639"
       ry="0" />
    <g
       id="g1649"
       transform="matrix(0.77157145,0,0,0.77157145,23.700471,26.92531)">
      <g
         style="fill:#ffffff;fill-opacity:1"
         transform="matrix(0.12270508,0,0,-0.12270508,103.75435,143.96193)"
         id="g939">
        <path
           inkscape:connector-curvature="0"
           id="path941"
           style="fill:#ffffff;fill-opacity:1;fill-rule:evenodd;stroke:none"
           d="m 0,0 c 117.109,0 212.625,95.515 212.625,212.624 0,117.109 -95.516,212.624 -212.625,212.624 -117.109,0 -212.623,-95.515 -212.623,-212.624 C -212.623,95.515 -117.109,0 0,0" />
      </g>
      <g
         style="fill:#8e8682;fill-opacity:1"
         transform="matrix(0.12270508,0,0,-0.12270508,99.359493,96.583262)"
         id="g943">
        <path
           inkscape:connector-curvature="0"
           id="path945"
           style="fill:#8e8682;fill-opacity:1;fill-rule:nonzero;stroke:none"
           d="m 0,0 c 1.77,-7.597 -2.954,-15.189 -10.551,-16.958 -7.595,-1.77 -15.189,2.954 -16.959,10.55 -1.522,6.538 -2.244,13.027 -2.244,19.34 0,17.085 5.227,33.369 14.131,46.303 9.243,13.429 22.473,23.285 38.087,26.921 4.332,1.009 8.775,1.541 13.292,1.541 4.515,0 8.96,-0.532 13.291,-1.541 15.614,-3.636 28.844,-13.492 38.088,-26.921 8.904,-12.934 14.131,-29.218 14.131,-46.303 0,-6.313 -0.722,-12.801 -2.245,-19.34 -1.769,-7.596 -9.363,-12.32 -16.958,-10.55 -7.597,1.769 -12.321,9.361 -10.552,16.958 0.999,4.285 1.471,8.627 1.471,12.932 0,11.36 -3.347,22.001 -9.048,30.284 -5.363,7.79 -12.774,13.446 -21.294,15.431 -2.158,0.502 -4.456,0.767 -6.884,0.767 -2.429,0 -4.728,-0.265 -6.884,-0.767 C 20.352,56.662 12.94,51.006 7.578,43.216 1.876,34.933 -1.471,24.292 -1.471,12.932 -1.471,8.627 -0.998,4.285 0,0" />
      </g>
      <g
         style="fill:#8e8682;fill-opacity:1"
         transform="matrix(0.12270508,0,0,-0.12270508,103.74691,89.723755)"
         id="g951">
        <path
           inkscape:connector-curvature="0"
           id="path953"
           style="fill:#8e8682;fill-opacity:1;fill-rule:evenodd;stroke:none"
           d="M 0,0 C 21.126,0 38.356,17.23 38.356,38.356 38.356,59.483 21.126,76.714 0,76.714 -21.127,76.714 -38.357,59.483 -38.357,38.356 -38.357,17.23 -21.127,0 0,0" />
      </g>
      <g
         style="fill:#ffffff;fill-opacity:1"
         transform="matrix(0.12270508,0,0,-0.12270508,98.012007,83.605226)"
         id="g955">
        <path
           inkscape:connector-curvature="0"
           id="path957"
           style="fill:#ffffff;fill-opacity:1;fill-rule:nonzero;stroke:none"
           d="m 0,0 c -2.44,-7.383 -10.405,-11.39 -17.788,-8.949 -7.383,2.441 -11.389,10.405 -8.948,17.788 5.344,16.094 14.999,30.249 28.132,40.181 12.396,9.374 27.74,14.992 45.34,14.992 17.423,0 32.633,-5.499 44.963,-14.695 13.096,-9.767 22.772,-23.664 28.227,-39.478 2.532,-7.383 -1.401,-15.421 -8.783,-17.953 -7.383,-2.532 -15.421,1.4 -17.954,8.783 -3.635,10.54 -9.944,19.697 -18.393,25.999 -7.604,5.67 -17.086,9.061 -28.06,9.061 -11.104,0 -20.68,-3.466 -28.327,-9.248 C 9.87,20.024 3.551,10.691 0,0" />
      </g>
      <g
         style="fill:#8e8682;fill-opacity:1"
         transform="matrix(0.12270508,0,0,-0.12270508,119.99348,103.4215)"
         id="g959">
        <path
           inkscape:connector-curvature="0"
           id="path961"
           style="fill:#8e8682;fill-opacity:1;fill-rule:nonzero;stroke:none"
           d="m 0,0 c -5.694,-5.331 -14.632,-5.036 -19.962,0.658 -5.331,5.694 -5.036,14.632 0.658,19.963 4.901,4.587 10.158,8.456 15.626,11.613 14.796,8.542 31.511,12.158 47.165,10.914 16.251,-1.291 31.403,-7.82 42.359,-19.524 3.039,-3.247 5.721,-6.829 7.979,-10.741 2.258,-3.911 4.02,-8.025 5.313,-12.281 4.657,-15.34 2.736,-31.726 -4.272,-46.445 -6.749,-14.178 -18.238,-26.846 -33.034,-35.389 -5.468,-3.157 -11.447,-5.776 -17.871,-7.726 -7.464,-2.266 -15.351,1.947 -17.617,9.411 -2.266,7.464 1.948,15.351 9.411,17.617 4.211,1.278 8.207,3.039 11.935,5.192 9.838,5.68 17.38,13.899 21.703,22.978 4.065,8.539 5.257,17.785 2.716,26.156 -0.643,2.12 -1.563,4.243 -2.778,6.346 C 68.117,0.845 66.738,2.703 65.226,4.32 59.246,10.707 50.642,14.296 41.215,15.045 31.19,15.842 20.302,13.42 10.464,7.74 6.736,5.587 3.212,3.007 0,0" />
      </g>
      <g
         style="fill:#8e8682;fill-opacity:1"
         transform="matrix(0.12270508,0,0,-0.12270508,136.27957,99.084755)"
         id="g967">
        <path
           inkscape:connector-curvature="0"
           id="path969"
           style="fill:#8e8682;fill-opacity:1;fill-rule:evenodd;stroke:none"
           d="m 0,0 c 10.592,-18.346 4.307,-41.805 -14.039,-52.396 -18.346,-10.592 -41.805,-4.307 -52.397,14.039 -10.591,18.346 -4.306,41.805 14.04,52.397 C -34.05,24.631 -10.592,18.346 0,0" />
      </g>
      <g
         style="fill:#ffffff;fill-opacity:1"
         transform="matrix(0.12270508,0,0,-0.12270508,130.55905,95.765427)"
         id="g971">
        <path
           inkscape:connector-curvature="0"
           id="path973"
           style="fill:#ffffff;fill-opacity:1;fill-rule:nonzero;stroke:none"
           d="m 0,0 c -7.614,-1.578 -15.066,3.315 -16.645,10.93 -1.577,7.614 3.317,15.066 10.931,16.643 16.61,3.418 33.696,2.136 48.863,-4.272 14.317,-6.049 26.855,-16.528 35.655,-31.77 8.712,-15.089 11.553,-31.011 9.755,-46.286 -1.912,-16.226 -9.107,-31.554 -20.076,-44.185 -5.128,-5.884 -14.054,-6.498 -19.939,-1.37 -5.885,5.128 -6.498,14.056 -1.37,19.94 7.309,8.418 12.086,18.461 13.318,28.929 1.11,9.419 -0.695,19.326 -6.182,28.831 C 48.758,-12.994 40.969,-6.434 32.138,-2.703 22.276,1.463 11.034,2.27 0,0" />
      </g>
      <g
         style="fill:#8e8682;fill-opacity:1"
         transform="matrix(0.12270508,0,0,-0.12270508,124.38845,124.71016)"
         id="g975">
        <path
           inkscape:connector-curvature="0"
           id="path977"
           style="fill:#8e8682;fill-opacity:1;fill-rule:nonzero;stroke:none"
           d="m 0,0 c -7.464,2.267 -11.678,10.153 -9.412,17.617 2.266,7.463 10.153,11.677 17.617,9.411 6.424,-1.95 12.403,-4.569 17.871,-7.726 14.795,-8.542 26.285,-21.21 33.034,-35.389 7.007,-14.72 8.928,-31.104 4.271,-46.445 -1.292,-4.256 -3.053,-8.37 -5.312,-12.281 -2.258,-3.912 -4.94,-7.494 -7.979,-10.741 -10.957,-11.704 -26.108,-18.233 -42.359,-19.524 -15.654,-1.244 -32.369,2.372 -47.165,10.914 -5.467,3.156 -10.725,7.026 -15.627,11.614 -5.694,5.33 -5.988,14.268 -0.658,19.962 5.331,5.694 14.269,5.988 19.963,0.658 3.212,-3.007 6.735,-5.588 10.464,-7.74 9.838,-5.68 20.727,-8.101 30.751,-7.306 9.428,0.749 18.031,4.339 24.01,10.726 1.513,1.617 2.892,3.476 4.106,5.578 1.214,2.104 2.134,4.227 2.779,6.346 2.541,8.371 1.347,17.617 -2.717,26.156 -4.323,9.079 -11.866,17.298 -21.703,22.979 C 8.206,-3.039 4.209,-1.278 0,0" />
      </g>
      <g
         style="fill:#8e8682;fill-opacity:1"
         transform="matrix(0.12270508,0,0,-0.12270508,136.28713,136.646)"
         id="g983">
        <path
           inkscape:connector-curvature="0"
           id="path985"
           style="fill:#8e8682;fill-opacity:1;fill-rule:evenodd;stroke:none"
           d="m 0,0 c -10.592,-18.346 -34.051,-24.632 -52.396,-14.04 -18.346,10.593 -24.631,34.051 -14.04,52.396 10.592,18.347 34.05,24.632 52.397,14.04 C 4.307,41.805 10.592,18.346 0,0" />
      </g>
      <g
         style="fill:#ffffff;fill-opacity:1"
         transform="matrix(0.12270508,0,0,-0.12270508,136.30139,130.03214)"
         id="g987">
        <path
           inkscape:connector-curvature="0"
           id="path989"
           style="fill:#ffffff;fill-opacity:1;fill-rule:nonzero;stroke:none"
           d="M 0,0 C -5.173,5.805 -4.661,14.705 1.145,19.879 6.949,25.053 15.85,24.54 21.023,18.735 32.288,6.059 39.721,-9.379 41.755,-25.718 c 1.92,-15.424 -0.886,-31.52 -9.687,-46.762 -8.711,-15.089 -21.079,-25.512 -35.208,-31.592 -15.006,-6.458 -31.879,-7.89 -48.301,-4.706 -7.661,1.498 -12.656,8.923 -11.157,16.583 1.498,7.66 8.923,12.655 16.583,11.156 10.946,-2.121 22.031,-1.236 31.712,2.931 8.712,3.748 16.391,10.264 21.877,19.769 5.553,9.616 7.339,19.642 6.155,29.155 C 12.406,-18.561 7.483,-8.421 0,0" />
      </g>
      <g
         style="fill:#8e8682;fill-opacity:1"
         transform="matrix(0.12270508,0,0,-0.12270508,87.515335,132.32232)"
         id="g991">
        <path
           inkscape:connector-curvature="0"
           id="path993"
           style="fill:#8e8682;fill-opacity:1;fill-rule:nonzero;stroke:none"
           d="m 0,0 c 5.694,5.331 14.631,5.036 19.962,-0.658 5.331,-5.694 5.036,-14.631 -0.657,-19.962 -4.902,-4.588 -10.159,-8.457 -15.627,-11.613 -14.796,-8.543 -31.511,-12.159 -47.165,-10.915 -16.251,1.292 -31.402,7.821 -42.359,19.524 -3.039,3.247 -5.721,6.829 -7.979,10.74 -2.258,3.912 -4.02,8.026 -5.312,12.282 -4.658,15.34 -2.737,31.726 4.271,46.445 6.749,14.178 18.238,26.846 33.034,35.389 5.468,3.157 11.447,5.776 17.871,7.726 7.464,2.267 15.352,-1.947 17.617,-9.411 2.266,-7.463 -1.948,-15.351 -9.411,-17.616 -4.21,-1.279 -8.207,-3.04 -11.935,-5.193 -9.838,-5.679 -17.38,-13.899 -21.703,-22.978 -4.064,-8.539 -5.257,-17.785 -2.716,-26.156 0.643,-2.12 1.564,-4.243 2.778,-6.345 1.214,-2.104 2.593,-3.962 4.106,-5.578 5.979,-6.387 14.583,-9.977 24.01,-10.726 10.025,-0.797 20.913,1.625 30.751,7.306 C -6.736,-5.587 -3.212,-3.007 0,0" />
      </g>
      <g
         style="fill:#8e8682;fill-opacity:1"
         transform="matrix(0.12270508,0,0,-0.12270508,71.22923,136.65905)"
         id="g999">
        <path
           inkscape:connector-curvature="0"
           id="path1001"
           style="fill:#8e8682;fill-opacity:1;fill-rule:evenodd;stroke:none"
           d="M 0,0 C -10.593,18.346 -4.307,41.805 14.039,52.396 32.385,62.988 55.844,56.703 66.436,38.357 77.027,20.011 70.742,-3.447 52.396,-14.039 34.05,-24.632 10.592,-18.346 0,0" />
      </g>
      <g
         style="fill:#ffffff;fill-opacity:1"
         transform="matrix(0.12270508,0,0,-0.12270508,76.949753,139.97832)"
         id="g1003">
        <path
           inkscape:connector-curvature="0"
           id="path1005"
           style="fill:#ffffff;fill-opacity:1;fill-rule:nonzero;stroke:none"
           d="m 0,0 c 7.614,1.578 15.066,-3.315 16.645,-10.93 1.577,-7.614 -3.317,-15.066 -10.931,-16.643 -16.61,-3.418 -33.696,-2.136 -48.863,4.271 -14.317,6.049 -26.855,16.529 -35.655,31.771 -8.712,15.089 -11.553,31.01 -9.755,46.286 1.911,16.225 9.108,31.554 20.076,44.184 5.128,5.885 14.055,6.499 19.939,1.371 5.885,-5.128 6.498,-14.056 1.37,-19.94 -7.309,-8.419 -12.086,-18.461 -13.318,-28.93 -1.11,-9.419 0.695,-19.326 6.182,-28.83 C -48.758,12.994 -40.969,6.434 -32.138,2.702 -22.276,-1.464 -11.034,-2.27 0,0" />
      </g>
      <g
         style="fill:#8e8682;fill-opacity:1"
         transform="matrix(0.12270508,0,0,-0.12270508,83.120481,111.03364)"
         id="g1007">
        <path
           inkscape:connector-curvature="0"
           id="path1009"
           style="fill:#8e8682;fill-opacity:1;fill-rule:nonzero;stroke:none"
           d="m 0,0 c 7.463,-2.266 11.677,-10.153 9.411,-17.617 -2.266,-7.463 -10.153,-11.677 -17.617,-9.411 -6.423,1.95 -12.403,4.57 -17.87,7.726 -14.797,8.543 -26.285,21.21 -33.035,35.389 -7.007,14.72 -8.928,31.105 -4.271,46.445 1.292,4.256 3.054,8.37 5.312,12.281 2.257,3.912 4.94,7.494 7.98,10.741 10.956,11.704 26.107,18.233 42.358,19.524 15.654,1.244 32.369,-2.371 47.165,-10.914 C 44.9,91.008 50.158,87.138 55.06,82.55 60.754,77.22 61.049,68.282 55.718,62.588 50.387,56.894 41.449,56.6 35.756,61.93 c -3.213,3.007 -6.736,5.588 -10.465,7.74 -9.838,5.68 -20.727,8.102 -30.75,7.306 -9.428,-0.749 -18.032,-4.339 -24.011,-10.726 -1.513,-1.617 -2.892,-3.475 -4.106,-5.578 -1.214,-2.103 -2.134,-4.226 -2.778,-6.345 -2.542,-8.371 -1.348,-17.618 2.717,-26.157 4.323,-9.079 11.864,-17.298 21.702,-22.978 C -8.207,3.04 -4.21,1.278 0,0" />
      </g>
      <g
         style="fill:#8e8682;fill-opacity:1"
         transform="matrix(0.12270508,0,0,-0.12270508,71.221683,99.097766)"
         id="g1015">
        <path
           inkscape:connector-curvature="0"
           id="path1017"
           style="fill:#8e8682;fill-opacity:1;fill-rule:evenodd;stroke:none"
           d="M 0,0 C 10.592,18.346 34.051,24.631 52.396,14.039 70.742,3.447 77.027,-20.011 66.436,-38.357 55.844,-56.703 32.385,-62.988 14.039,-52.396 -4.307,-41.805 -10.592,-18.346 0,0" />
      </g>
      <g
         style="fill:#ffffff;fill-opacity:1"
         transform="matrix(0.12270508,0,0,-0.12270508,71.207425,105.71162)"
         id="g1019">
        <path
           inkscape:connector-curvature="0"
           id="path1021"
           style="fill:#ffffff;fill-opacity:1;fill-rule:nonzero;stroke:none"
           d="m 0,0 c 5.173,-5.805 4.661,-14.706 -1.145,-19.879 -5.804,-5.174 -14.705,-4.662 -19.878,1.144 -11.265,12.676 -18.698,28.114 -20.732,44.453 -1.92,15.423 0.887,31.52 9.687,46.762 8.711,15.089 21.079,25.512 35.208,31.592 15.006,6.458 31.879,7.889 48.302,4.706 7.66,-1.498 12.655,-8.923 11.156,-16.583 C 61.1,84.535 53.675,79.54 46.015,81.039 35.069,83.16 23.984,82.275 14.303,78.108 5.591,74.36 -2.087,67.843 -7.574,58.339 -13.127,48.723 -14.913,38.697 -13.729,29.183 -12.406,18.56 -7.483,8.421 0,0" />
      </g>
      <g
         style="fill:#8e8682;fill-opacity:1"
         transform="matrix(0.12270508,0,0,-0.12270508,108.14933,139.1606)"
         id="g1023">
        <path
           inkscape:connector-curvature="0"
           id="path1025"
           style="fill:#8e8682;fill-opacity:1;fill-rule:nonzero;stroke:none"
           d="m 0,0 c -1.77,7.597 2.954,15.19 10.551,16.959 7.596,1.77 15.189,-2.954 16.959,-10.551 1.522,-6.538 2.244,-13.026 2.244,-19.34 0,-17.085 -5.227,-33.368 -14.131,-46.303 -9.243,-13.428 -22.473,-23.285 -38.087,-26.92 -4.332,-1.01 -8.775,-1.541 -13.292,-1.541 -4.515,0 -8.96,0.531 -13.291,1.541 -15.614,3.635 -28.844,13.492 -38.088,26.92 -8.904,12.935 -14.131,29.218 -14.131,46.303 0,6.314 0.722,12.802 2.245,19.34 1.77,7.597 9.362,12.321 16.959,10.551 7.596,-1.769 12.321,-9.362 10.551,-16.959 -0.998,-4.284 -1.471,-8.626 -1.471,-12.932 0,-11.359 3.346,-22.001 9.048,-30.283 5.363,-7.79 12.774,-13.446 21.294,-15.431 2.158,-0.502 4.455,-0.767 6.884,-0.767 2.429,0 4.728,0.265 6.884,0.767 8.52,1.985 15.932,7.641 21.294,15.431 5.702,8.282 9.049,18.924 9.049,30.283 C 1.471,-8.626 0.997,-4.284 0,0" />
      </g>
      <g
         style="fill:#8e8682;fill-opacity:1"
         transform="matrix(0.12270508,0,0,-0.12270508,103.76189,155.43318)"
         id="g1031">
        <path
           inkscape:connector-curvature="0"
           id="path1033"
           style="fill:#8e8682;fill-opacity:1;fill-rule:evenodd;stroke:none"
           d="m 0,0 c -21.184,0 -38.356,17.174 -38.356,38.357 0,21.184 17.172,38.357 38.356,38.357 21.185,0 38.357,-17.173 38.357,-38.357 C 38.357,17.174 21.185,0 0,0" />
      </g>
      <g
         style="fill:#ffffff;fill-opacity:1"
         transform="matrix(0.12270508,0,0,-0.12270508,109.49679,152.13859)"
         id="g1035">
        <path
           inkscape:connector-curvature="0"
           id="path1037"
           style="fill:#ffffff;fill-opacity:1;fill-rule:nonzero;stroke:none"
           d="m 0,0 c 2.441,7.383 10.404,11.39 17.788,8.949 7.383,-2.44 11.39,-10.405 8.948,-17.788 -5.344,-16.094 -14.998,-30.249 -28.131,-40.181 -12.397,-9.374 -27.741,-14.992 -45.341,-14.992 -17.422,0 -32.633,5.499 -44.963,14.696 -13.096,9.766 -22.772,23.663 -28.227,39.477 -2.532,7.383 1.401,15.421 8.783,17.953 7.383,2.532 15.422,-1.4 17.954,-8.783 3.635,-10.54 9.945,-19.697 18.394,-25.999 7.603,-5.67 17.085,-9.061 28.059,-9.061 11.104,0 20.68,3.465 28.327,9.249 C -9.87,-20.023 -3.551,-10.69 0,0" />
      </g>
    </g>
  </g>
</svg>
