<?xml version="1.0" encoding="UTF-8" standalone="no"?>
<!-- Created with Inkscape (http://www.inkscape.org/) -->

<svg
   xmlns:dc="http://purl.org/dc/elements/1.1/"
   xmlns:cc="http://creativecommons.org/ns#"
   xmlns:rdf="http://www.w3.org/1999/02/22-rdf-syntax-ns#"
   xmlns:svg="http://www.w3.org/2000/svg"
   xmlns="http://www.w3.org/2000/svg"
   xmlns:sodipodi="http://sodipodi.sourceforge.net/DTD/sodipodi-0.dtd"
   xmlns:inkscape="http://www.inkscape.org/namespaces/inkscape"
   width="338.14801"
   height="163.02299"
   viewBox="0 0 89.468326 43.133169"
   version="1.1"
   id="svg8"
   inkscape:version="0.92.3 (2405546, 2018-03-11)"
   sodipodi:docname="logo.svg">
  <defs
     id="defs2">
    <pattern
       y="0"
       x="0"
       height="6"
       width="6"
       patternUnits="userSpaceOnUse"
       id="EMFhbasepattern" />
  </defs>
  <sodipodi:namedview
     id="base"
     pagecolor="#ffffff"
     bordercolor="#666666"
     borderopacity="1.0"
     inkscape:pageopacity="0.0"
     inkscape:pageshadow="2"
     inkscape:zoom="0.7"
     inkscape:cx="121.60812"
     inkscape:cy="180.51762"
     inkscape:document-units="mm"
     inkscape:current-layer="layer1"
     showgrid="false"
     units="px"
     inkscape:showpageshadow="false"
     inkscape:window-width="1366"
     inkscape:window-height="705"
     inkscape:window-x="-8"
     inkscape:window-y="-8"
     inkscape:window-maximized="1" />
  <metadata
     id="metadata5">
    <rdf:RDF>
      <cc:Work
         rdf:about="">
        <dc:format>image/svg+xml</dc:format>
        <dc:type
           rdf:resource="http://purl.org/dc/dcmitype/StillImage" />
        <dc:title></dc:title>
      </cc:Work>
    </rdf:RDF>
  </metadata>
  <g
     inkscape:label="Livello 1"
     inkscape:groupmode="layer"
     id="layer1"
     transform="translate(0,-253.86681)">
    <g
       id="g893"
       transform="matrix(1.5028081,0,0,1.5028081,-1.8439418,207.40449)">
      <path
         inkscape:connector-curvature="0"
         style="fill:#177a30;fill-opacity:1;fill-rule:nonzero;stroke:none;stroke-width:0.26458332"
         d="m 30.85918,30.916964 c -0.127,0 -0.211664,0.105833 -0.211664,0.232832 v 4.021637 c 0.10583,0 0.23283,0 0.338664,0 0.04233,0 0.08466,0 0.126997,0 v -4.021637 c 0,-0.126999 -0.105831,-0.232832 -0.253997,-0.232832 z m 0.127,4.254469 c -1.333492,0 -2.603482,0.253998 -3.788806,0.719661 0.105832,-0.04233 0.211665,-0.08467 0.317497,-0.105833 l -1.375823,-3.51364 c -0.02117,-0.105833 -0.105833,-0.148166 -0.211665,-0.148166 -0.169332,-0.02117 -0.275165,0.148166 -0.211665,0.317498 l 1.354656,3.513641 c -1.989651,0.825493 -3.640639,2.285983 -4.741298,4.106302 h 17.335371 c -1.100659,-1.820319 -2.772812,-3.280809 -4.762463,-4.106302 l 1.375823,-3.513641 c 0.0635,-0.169332 -0.0635,-0.338664 -0.232831,-0.317498 -0.08467,0 -0.169333,0.0635 -0.211667,0.148166 l -1.354656,3.51364 c 0.105834,0.02117 0.190498,0.0635 0.296331,0.105833 -1.164159,-0.465663 -2.455315,-0.719661 -3.788804,-0.719661 z m 9.461428,-0.338665 c -0.0635,0 -0.126997,0.02117 -0.190497,0.08467 l -2.561148,2.79398 c 0.127,0.105832 0.23283,0.211665 0.35983,0.317497 l 2.561149,-2.815145 c 0.126997,-0.127 0.02117,-0.380998 -0.169334,-0.380998 z m -18.922859,0 c -0.190499,0.02117 -0.275165,0.253999 -0.148166,0.380998 l 2.561148,2.815145 c 0.105833,-0.105832 0.232832,-0.211665 0.338664,-0.317497 l -2.561148,-2.793979 c -0.04233,-0.0635 -0.105832,-0.08467 -0.169332,-0.08467 0,0 0,0 -0.02117,0 z m 0.761994,15.642051 c 0.529163,0.867827 1.185325,1.672155 1.947319,2.349483 -0.0635,-0.04233 -0.126999,-0.105833 -0.190498,-0.169332 l -2.666981,2.920978 c -0.211665,0.232832 0.126999,0.550329 0.338664,0.317498 l 2.666981,-2.920979 c 0,-0.02117 0,-0.02117 0,-0.02117 1.75682,1.545155 4.085137,2.455315 6.603952,2.455315 2.539981,0 4.847129,-0.91016 6.625116,-2.455315 0,0 0,0 -0.02117,0.02117 l 2.666982,2.920979 c 0.211664,0.232831 0.571495,-0.08467 0.359831,-0.317498 L 37.949957,52.65497 c -0.0635,0.0635 -0.148164,0.126999 -0.211664,0.169332 0.761995,-0.677328 1.439323,-1.481656 1.968484,-2.349483 z m 4.868298,4.190969 -1.439323,3.704139 c -0.105833,0.275164 0.317497,0.444497 0.42333,0.169333 l 1.439323,-3.70414 c -0.148166,-0.0635 -0.296331,-0.105832 -0.42333,-0.169332 z m 7.683443,0 c -0.148167,0.0635 -0.296331,0.105833 -0.444497,0.169332 l 1.439322,3.70414 c 0.105834,0.296331 0.550331,0.105831 0.444498,-0.169333 z m -4.190968,0.740828 v 3.958136 c -0.02117,0.338664 0.465661,0.338664 0.465661,0 v -3.958136 c -0.04233,0 -0.08466,0.02117 -0.126997,0.02117 -0.105834,0 -0.232834,-0.02117 -0.338664,-0.02117 z"
         id="path818" />
      <path
         inkscape:connector-curvature="0"
         style="fill:none;stroke:#177a30;stroke-width:0.69849485px;stroke-linecap:butt;stroke-linejoin:miter;stroke-miterlimit:10;stroke-dasharray:none;stroke-opacity:1"
         d="M 60.195963,50.474819 H 1.7763955 L 4.1470446,45.416023 1.7763955,40.060896 H 60.195963 l -2.582315,5.249295 z"
         id="path820" />
      <path
         inkscape:connector-curvature="0"
         style="fill:#177a30;fill-opacity:1;fill-rule:nonzero;stroke:none;stroke-width:0.26458332"
         d="m 9.2693401,42.918375 h 3.4713069 v 0.719661 h -1.248824 v 3.026811 H 10.518164 V 43.638036 H 9.2693401 Z"
         id="path822" />
      <path
         inkscape:connector-curvature="0"
         style="fill:#177a30;fill-opacity:1;fill-rule:nonzero;stroke:none;stroke-width:0.26458332"
         d="m 16.021456,44.95036 v 1.714487 h -0.91016 v -0.275164 -1.037159 c 0,-0.232832 0,-0.402164 0,-0.507997 -0.02117,-0.08467 -0.04233,-0.148165 -0.0635,-0.190498 -0.04233,-0.0635 -0.08467,-0.105833 -0.148166,-0.148166 -0.0635,-0.02117 -0.126999,-0.04233 -0.211665,-0.04233 -0.169332,0 -0.317497,0.0635 -0.42333,0.211665 -0.105832,0.148166 -0.169332,0.338664 -0.169332,0.592663 v 1.396989 h -0.91016 v -3.915804 h 0.91016 v 1.502822 c 0.126999,-0.148165 0.275165,-0.275165 0.42333,-0.35983 0.169332,-0.0635 0.338664,-0.105833 0.507997,-0.105833 0.338664,0 0.571495,0.08467 0.740827,0.296331 0.169332,0.190499 0.253998,0.48683 0.253998,0.867827 z"
         id="path824" />
      <path
         inkscape:connector-curvature="0"
         style="fill:#177a30;fill-opacity:1;fill-rule:nonzero;stroke:none;stroke-width:0.26458332"
         d="m 19.683263,45.246691 v 0.253998 h -2.116651 c 0.02117,0.211665 0.105832,0.380997 0.232831,0.48683 0.126999,0.105833 0.317498,0.148166 0.55033,0.148166 0.190498,0 0.380997,-0.02117 0.571495,-0.08467 0.211665,-0.04233 0.402164,-0.148165 0.613829,-0.253998 v 0.698495 c -0.211665,0.08467 -0.42333,0.148166 -0.634995,0.169332 -0.211665,0.04233 -0.42333,0.0635 -0.634996,0.0635 -0.507996,0 -0.91016,-0.126999 -1.185324,-0.380997 -0.275165,-0.253998 -0.42333,-0.613829 -0.42333,-1.079492 0,-0.465664 0.126999,-0.825494 0.42333,-1.100659 0.275164,-0.253998 0.656162,-0.380997 1.142991,-0.380997 0.444497,0 0.783161,0.126999 1.058326,0.402164 0.253998,0.253998 0.402164,0.613828 0.402164,1.058325 z M 18.751936,44.95036 c 0,-0.169332 -0.04233,-0.317498 -0.148166,-0.42333 -0.105832,-0.105833 -0.232831,-0.148166 -0.402163,-0.148166 -0.169332,0 -0.296331,0.04233 -0.42333,0.148166 -0.105833,0.105832 -0.169332,0.232831 -0.190499,0.42333 z"
         id="path826" />
      <path
         inkscape:connector-curvature="0"
         style="fill:#177a30;fill-opacity:1;fill-rule:nonzero;stroke:none;stroke-width:0.26458332"
         d="m 19.958427,42.918375 h 0.952493 l 1.015993,2.751646 0.973659,-2.751646 h 0.97366 l -1.375824,3.746472 H 21.33425 Z"
         id="path828" />
      <path
         inkscape:connector-curvature="0"
         style="fill:#177a30;fill-opacity:1;fill-rule:nonzero;stroke:none;stroke-width:0.26458332"
         d="m 26.858709,45.246691 v 0.253998 h -2.095484 c 0.02117,0.211665 0.105833,0.380997 0.232832,0.48683 0.126999,0.105833 0.317497,0.148166 0.550329,0.148166 0.190498,0 0.380997,-0.02117 0.571496,-0.08467 0.211665,-0.04233 0.402163,-0.148165 0.613828,-0.253998 v 0.698495 c -0.211665,0.08467 -0.42333,0.148166 -0.634995,0.169332 -0.211665,0.04233 -0.42333,0.0635 -0.634995,0.0635 -0.507996,0 -0.91016,-0.126999 -1.185325,-0.380997 -0.296331,-0.253998 -0.42333,-0.613829 -0.42333,-1.079492 0,-0.465664 0.126999,-0.825494 0.402164,-1.100659 0.275164,-0.253998 0.656162,-0.380997 1.142991,-0.380997 0.444497,0 0.804328,0.126999 1.079492,0.402164 0.253998,0.253998 0.380997,0.613828 0.380997,1.058325 z M 25.94855,44.95036 c 0,-0.169332 -0.0635,-0.317498 -0.148166,-0.42333 -0.105833,-0.105833 -0.232832,-0.148166 -0.402164,-0.148166 -0.169332,0 -0.317497,0.04233 -0.42333,0.148166 -0.105832,0.105832 -0.169332,0.232831 -0.211665,0.42333 z"
         id="path830" />
      <path
         inkscape:connector-curvature="0"
         style="fill:#177a30;fill-opacity:1;fill-rule:nonzero;stroke:none;stroke-width:0.26458332"
         d="m 29.46219,46.178018 c -0.127,0.169332 -0.253997,0.296331 -0.402164,0.35983 -0.148166,0.08467 -0.338664,0.126999 -0.529161,0.126999 -0.338664,0 -0.613831,-0.126999 -0.846662,-0.402163 -0.232831,-0.275165 -0.338664,-0.613829 -0.338664,-1.037159 0,-0.423331 0.105833,-0.761995 0.338664,-1.037159 0.232831,-0.275165 0.507998,-0.402164 0.846662,-0.402164 0.190497,0 0.380995,0.04233 0.529161,0.105833 0.148167,0.08466 0.275164,0.211665 0.402164,0.380997 v -0.42333 h 0.910159 v 2.539981 c 0,0.444496 -0.148164,0.783161 -0.444495,1.015992 -0.275166,0.253998 -0.698494,0.359831 -1.227658,0.359831 -0.190498,0 -0.359831,0 -0.507995,-0.02117 -0.169333,-0.04233 -0.338667,-0.08467 -0.507998,-0.126999 v -0.698495 c 0.169331,0.08467 0.317498,0.148166 0.465665,0.190499 0.148164,0.04233 0.29633,0.0635 0.465661,0.0635 0.296331,0 0.507997,-0.0635 0.634997,-0.190499 0.148164,-0.126999 0.211664,-0.317498 0.211664,-0.592662 z m -0.592661,-1.735654 c -0.1905,0 -0.338664,0.0635 -0.444497,0.190498 -0.08467,0.148166 -0.148167,0.338665 -0.148167,0.592663 0,0.253998 0.04233,0.444496 0.148167,0.592662 0.105833,0.126999 0.253997,0.190498 0.444497,0.190498 0.190497,0 0.338664,-0.0635 0.444495,-0.211665 0.105833,-0.126999 0.148166,-0.317497 0.148166,-0.571495 0,-0.253998 -0.04233,-0.444497 -0.148166,-0.592663 -0.105831,-0.126999 -0.253998,-0.190498 -0.444495,-0.190498 z"
         id="path832" />
      <path
         inkscape:connector-curvature="0"
         style="fill:#177a30;fill-opacity:1;fill-rule:nonzero;stroke:none;stroke-width:0.26458332"
         d="m 33.145164,46.178018 c -0.105833,0.169332 -0.254,0.296331 -0.402164,0.35983 -0.148167,0.08467 -0.317498,0.126999 -0.507998,0.126999 -0.35983,0 -0.634994,-0.126999 -0.867825,-0.402163 -0.211667,-0.275165 -0.338664,-0.613829 -0.338664,-1.037159 0,-0.423331 0.126997,-0.761995 0.338664,-1.037159 0.232831,-0.275165 0.507995,-0.402164 0.867825,-0.402164 0.1905,0 0.359831,0.04233 0.507998,0.105833 0.148164,0.08466 0.296331,0.211665 0.402164,0.380997 v -0.42333 h 0.910159 v 2.539981 c 0,0.444496 -0.148164,0.783161 -0.423331,1.015992 -0.296331,0.253998 -0.698495,0.359831 -1.248823,0.359831 -0.169333,0 -0.338664,0 -0.507997,-0.02117 -0.169331,-0.04233 -0.338664,-0.08467 -0.486828,-0.126999 v -0.698495 c 0.148164,0.08467 0.29633,0.148166 0.444494,0.190499 0.169334,0.04233 0.317498,0.0635 0.465664,0.0635 0.296331,0 0.507998,-0.0635 0.656162,-0.190499 0.127,-0.126999 0.1905,-0.317498 0.1905,-0.592662 z M 32.5525,44.442364 c -0.169331,0 -0.317498,0.0635 -0.423331,0.190498 -0.105831,0.148166 -0.169331,0.338665 -0.169331,0.592663 0,0.253998 0.0635,0.444496 0.169331,0.592662 0.08467,0.126999 0.232833,0.190498 0.423331,0.190498 0.1905,0 0.338664,-0.0635 0.444497,-0.211665 0.105834,-0.126999 0.148167,-0.317497 0.148167,-0.571495 0,-0.253998 -0.04233,-0.444497 -0.148167,-0.592663 C 32.891164,44.505863 32.743,44.442364 32.5525,44.442364 Z"
         id="path834" />
      <path
         inkscape:connector-curvature="0"
         style="fill:#177a30;fill-opacity:1;fill-rule:nonzero;stroke:none;stroke-width:0.26458332"
         d="m 34.923151,43.849702 h 0.910158 v 2.815145 h -0.910158 z m 0,-1.100659 h 0.910158 v 0.740828 h -0.910158 z"
         id="path836" />
      <path
         inkscape:connector-curvature="0"
         style="fill:#177a30;fill-opacity:1;fill-rule:nonzero;stroke:none;stroke-width:0.26458332"
         d="m 39.516283,45.246691 v 0.253998 h -2.116651 c 0.02117,0.211665 0.105831,0.380997 0.232831,0.48683 0.127,0.105833 0.317497,0.148166 0.55033,0.148166 0.190498,0 0.380995,-0.02117 0.571495,-0.08467 0.211664,-0.04233 0.402164,-0.148165 0.613828,-0.253998 v 0.698495 c -0.211664,0.08467 -0.42333,0.148166 -0.634994,0.169332 -0.211665,0.04233 -0.423331,0.0635 -0.634995,0.0635 -0.507998,0 -0.910162,-0.126999 -1.185326,-0.380997 -0.275164,-0.253998 -0.42333,-0.613829 -0.42333,-1.079492 0,-0.465664 0.127,-0.825494 0.402164,-1.100659 0.29633,-0.253998 0.677328,-0.380997 1.164158,-0.380997 0.444498,0 0.783162,0.126999 1.058326,0.402164 0.253997,0.253998 0.402164,0.613828 0.402164,1.058325 z M 38.584955,44.95036 c 0,-0.169332 -0.04233,-0.317498 -0.148164,-0.42333 -0.105834,-0.105833 -0.232834,-0.148166 -0.402164,-0.148166 -0.169334,0 -0.317498,0.04233 -0.423331,0.148166 -0.105833,0.105832 -0.169331,0.232831 -0.190497,0.42333 z"
         id="path838" />
      <path
         inkscape:connector-curvature="0"
         style="fill:#177a30;fill-opacity:1;fill-rule:nonzero;stroke:none;stroke-width:0.26458332"
         d="m 40.235944,42.918375 h 1.608654 c 0.465664,0 0.825494,0.105833 1.079492,0.317498 0.275164,0.211665 0.402164,0.507996 0.402164,0.888993 0,0.402164 -0.127,0.698495 -0.402164,0.91016 -0.253998,0.211665 -0.613828,0.317498 -1.079492,0.317498 h -0.656162 v 1.312323 h -0.952492 z m 0.952492,0.698495 v 1.037159 h 0.550331 c 0.190497,0 0.317497,-0.04233 0.423328,-0.126999 0.105833,-0.08467 0.148167,-0.232832 0.148167,-0.402164 0,-0.148166 -0.04233,-0.296331 -0.148167,-0.380997 -0.105831,-0.08467 -0.232831,-0.126999 -0.423328,-0.126999 z"
         id="path840" />
      <path
         inkscape:connector-curvature="0"
         style="fill:#177a30;fill-opacity:1;fill-rule:nonzero;stroke:none;stroke-width:0.26458332"
         d="m 45.083074,45.394857 c -0.190497,0 -0.338664,0.04233 -0.423331,0.105832 -0.10583,0.0635 -0.148164,0.148166 -0.148164,0.275165 0,0.105832 0.04233,0.211665 0.126998,0.275164 0.0635,0.0635 0.169333,0.08467 0.3175,0.08467 0.16933,0 0.29633,-0.0635 0.423328,-0.169332 0.105833,-0.127 0.169333,-0.275165 0.169333,-0.465664 V 45.39486 Z m 1.375823,-0.338664 v 1.608654 h -0.910159 v -0.42333 c -0.127,0.169332 -0.253997,0.296331 -0.402164,0.380997 -0.148167,0.08467 -0.338664,0.105833 -0.550328,0.105833 -0.296333,0 -0.529164,-0.08467 -0.719662,-0.253998 -0.169333,-0.169332 -0.275166,-0.380997 -0.275166,-0.656162 0,-0.338664 0.127,-0.571496 0.338664,-0.719661 0.232833,-0.169332 0.592664,-0.232832 1.079492,-0.232832 h 0.529164 v -0.08467 c 0,-0.126999 -0.0635,-0.232832 -0.169333,-0.296331 -0.105831,-0.0635 -0.296331,-0.105833 -0.529162,-0.105833 -0.1905,0 -0.35983,0.02117 -0.529164,0.0635 -0.169331,0.04233 -0.317497,0.08467 -0.465661,0.169332 v -0.698495 c 0.190497,-0.04233 0.380997,-0.0635 0.571495,-0.105833 0.211664,-0.02117 0.402164,-0.02117 0.592661,-0.02117 0.507997,0 0.867828,0.08467 1.100659,0.296331 0.232833,0.190499 0.338664,0.529163 0.338664,0.97366 z"
         id="path842" />
      <path
         inkscape:connector-curvature="0"
         style="fill:#177a30;fill-opacity:1;fill-rule:nonzero;stroke:none;stroke-width:0.26458332"
         d="m 48.279217,43.045374 v 0.804328 h 0.931328 v 0.634995 h -0.931328 v 1.206491 c 0,0.126999 0.02117,0.211665 0.08467,0.253998 0.04233,0.04233 0.148167,0.08467 0.296331,0.08467 h 0.465664 v 0.634995 h -0.761995 c -0.35983,0 -0.613828,-0.08467 -0.761994,-0.232831 -0.148164,-0.148166 -0.211664,-0.380998 -0.211664,-0.740828 v -1.206491 h -0.465664 v -0.634995 h 0.465664 v -0.804332 z"
         id="path844" />
      <path
         inkscape:connector-curvature="0"
         style="fill:#177a30;fill-opacity:1;fill-rule:nonzero;stroke:none;stroke-width:0.26458332"
         d="m 52.597185,44.95036 v 1.714487 h -0.910159 v -0.275164 -1.037159 c 0,-0.232832 0,-0.402164 -0.02117,-0.507997 0,-0.08467 -0.02117,-0.148165 -0.04233,-0.190498 -0.04233,-0.0635 -0.08467,-0.105833 -0.148166,-0.148166 -0.0635,-0.02117 -0.126998,-0.04233 -0.211664,-0.04233 -0.1905,0 -0.338664,0.0635 -0.444498,0.211665 -0.105833,0.148166 -0.148164,0.338664 -0.148164,0.592663 v 1.396989 h -0.910161 v -3.915804 h 0.910161 v 1.502822 c 0.126998,-0.148165 0.275164,-0.275165 0.423328,-0.35983 0.148167,-0.0635 0.317498,-0.105833 0.507998,-0.105833 0.317497,0 0.571494,0.08467 0.740828,0.296331 0.16933,0.190499 0.253997,0.48683 0.253997,0.867827 z"
         id="path846" />
      <path
         inkscape:connector-curvature="0"
         style="fill:#177a30;fill-opacity:1;fill-rule:nonzero;stroke:none;stroke-width:0.26458332"
         d="m 6.8775245,41.225054 c -0.042333,0 -0.084666,0 -0.1058325,0.02117 -0.2116651,0.232831 -0.3598307,0.529163 -0.3598307,0.867827 0,0.338664 0.1481656,0.634995 0.3598307,0.867827 0.063499,0.04233 0.1269989,0.04233 0.1904984,0 0.211665,-0.232832 0.3598307,-0.529163 0.3598307,-0.867827 0,-0.338664 -0.1481657,-0.634996 -0.3598307,-0.867827 -0.021166,-0.02117 -0.063499,-0.02117 -0.084666,-0.02117 z m 1.3123235,1.291157 c -0.2963312,0 -0.6138288,0.105833 -0.8678269,0.359831 -0.2328315,0.232832 -0.3386641,0.550329 -0.3386641,0.84666 0,0.08467 0.042333,0.127 0.126999,0.127 0.3174976,0.02117 0.6138288,-0.105833 0.867827,-0.338665 0.2328314,-0.253998 0.338664,-0.550329 0.338664,-0.867826 0,-0.0635 -0.042333,-0.127 -0.126999,-0.127 z m -2.6458137,0 c -0.084666,0 -0.126999,0.0635 -0.126999,0.127 0,0.317497 0.1058326,0.613828 0.3386641,0.867826 0.2539981,0.232832 0.5714957,0.359831 0.8678269,0.338665 0.084666,0 0.126999,-0.04233 0.126999,-0.105833 0,-0.317498 -0.1058326,-0.634995 -0.338664,-0.867827 -0.2539982,-0.253998 -0.5714958,-0.359831 -0.867827,-0.359831 z m 2.6458137,1.227658 c -0.2963312,0 -0.6138288,0.126999 -0.8678269,0.359831 -0.2328315,0.232831 -0.3386641,0.550329 -0.3386641,0.867827 0,0.0635 0.042333,0.126999 0.126999,0.126999 0.3174976,0 0.6138288,-0.126999 0.867827,-0.359831 0.2328314,-0.232832 0.338664,-0.550329 0.338664,-0.867827 0,-0.0635 -0.042333,-0.126999 -0.126999,-0.126999 z m -2.6458137,0 c -0.084666,0 -0.126999,0.0635 -0.126999,0.126999 0,0.317498 0.1058326,0.634995 0.3386641,0.867827 0.2539981,0.232832 0.5714957,0.359831 0.8678269,0.359831 0.084666,0 0.126999,-0.0635 0.126999,-0.126999 0,-0.317498 -0.1058326,-0.634996 -0.338664,-0.867827 -0.2539982,-0.232832 -0.5714958,-0.359831 -0.867827,-0.359831 z m 2.6458137,1.227658 c -0.2963312,0 -0.6138288,0.126999 -0.8466603,0.35983 -0.2539981,0.232832 -0.3598307,0.550329 -0.3598307,0.867827 0,0.0635 0.042333,0.126999 0.126999,0.126999 0.3174976,0 0.6138288,-0.126999 0.867827,-0.35983 0.2328314,-0.232832 0.338664,-0.55033 0.338664,-0.867827 0,-0.0635 -0.042333,-0.126999 -0.126999,-0.126999 z m -2.6458137,0 c -0.084666,0 -0.126999,0.0635 -0.126999,0.126999 0,0.317497 0.1058326,0.634995 0.3386641,0.867827 0.2539981,0.232831 0.5714957,0.35983 0.8678269,0.35983 0.084666,0 0.126999,-0.0635 0.126999,-0.126999 0,-0.317498 -0.1058326,-0.634995 -0.338664,-0.867827 -0.2539982,-0.232831 -0.5714958,-0.35983 -0.867827,-0.35983 z m 2.6458137,1.248824 c -0.2963312,-0.02117 -0.6138288,0.105832 -0.8678269,0.338664 -0.2328315,0.232832 -0.3386641,0.550329 -0.3386641,0.867827 0,0.0635 0.063499,0.126999 0.126999,0.126999 0.3174976,0 0.6138288,-0.105833 0.867827,-0.359831 0.2328314,-0.232831 0.338664,-0.550329 0.338664,-0.867827 0,-0.0635 -0.042333,-0.105832 -0.126999,-0.105832 z m -2.6458137,0 c -0.084666,0 -0.126999,0.04233 -0.126999,0.126999 0,0.296331 0.1058326,0.613829 0.3386641,0.84666 0.2539981,0.253998 0.5714957,0.359831 0.8678269,0.359831 0.084666,0 0.126999,-0.0635 0.126999,-0.126999 0,-0.317498 -0.1058326,-0.613829 -0.338664,-0.867827 -0.2539982,-0.232832 -0.5714958,-0.359831 -0.867827,-0.338664 z m 1.2699907,1.545155 c -0.1058325,0 -0.1904987,0.08467 -0.1904987,0.190498 v 1.164158 c 0,0.105833 0.084666,0.190499 0.1904987,0.190499 h 0.1058326 c 0.1058325,0 0.1904984,-0.08467 0.1904984,-0.190499 v -1.164158 c 0,-0.105832 -0.084666,-0.190498 -0.1904984,-0.190498 z"
         id="path848" />
      <path
         inkscape:connector-curvature="0"
         style="fill:#177a30;fill-opacity:1;fill-rule:nonzero;stroke:none;stroke-width:0.26458332"
         d="m 54.862002,41.225054 c -0.04233,0 -0.0635,0 -0.08467,0.02117 -0.232831,0.232831 -0.359831,0.529163 -0.359831,0.867827 0,0.338664 0.127,0.634995 0.359831,0.867827 0.04233,0.04233 0.127,0.04233 0.169333,0 0.232831,-0.232832 0.359831,-0.529163 0.359831,-0.867827 0,-0.338664 -0.127,-0.634996 -0.359831,-0.867827 -0.02117,-0.02117 -0.0635,-0.02117 -0.08467,-0.02117 z m 1.33349,1.291157 c -0.317497,0 -0.634995,0.105833 -0.867826,0.359831 -0.232833,0.232832 -0.35983,0.550329 -0.35983,0.84666 0,0.08467 0.0635,0.127 0.126997,0.127 0.317497,0.02117 0.634995,-0.105833 0.867828,-0.338665 0.232831,-0.253998 0.359831,-0.550329 0.359831,-0.867826 0,-0.0635 -0.0635,-0.127 -0.127,-0.127 z m -2.666979,0 c -0.0635,0 -0.127,0.0635 -0.127,0.127 0,0.317497 0.127,0.613828 0.359831,0.867826 0.23283,0.232832 0.550328,0.359831 0.867825,0.338665 0.0635,0 0.127,-0.04233 0.127,-0.105833 0,-0.317498 -0.127,-0.634995 -0.359831,-0.867827 -0.23283,-0.253998 -0.550328,-0.359831 -0.867825,-0.359831 z m 2.666979,1.227658 c -0.317497,0 -0.634995,0.126999 -0.867826,0.359831 -0.232833,0.232831 -0.35983,0.550329 -0.35983,0.867827 0,0.0635 0.0635,0.126999 0.126997,0.126999 0.317497,0 0.634995,-0.126999 0.867828,-0.359831 0.232831,-0.232832 0.359831,-0.550329 0.359831,-0.867827 0,-0.0635 -0.0635,-0.126999 -0.127,-0.126999 z m -2.666979,0 c -0.0635,0 -0.127,0.0635 -0.127,0.126999 0,0.317498 0.127,0.634995 0.359831,0.867827 0.23283,0.232832 0.550328,0.359831 0.867825,0.359831 0.0635,0 0.127,-0.0635 0.127,-0.126999 0,-0.317498 -0.127,-0.634996 -0.359831,-0.867827 -0.23283,-0.232832 -0.550328,-0.359831 -0.867825,-0.359831 z m 2.666979,1.227658 c -0.317497,0 -0.634995,0.126999 -0.867826,0.35983 -0.232833,0.232832 -0.35983,0.550329 -0.35983,0.867827 0,0.0635 0.0635,0.126999 0.126997,0.126999 0.317497,0 0.634995,-0.126999 0.867828,-0.35983 0.232831,-0.232832 0.359831,-0.55033 0.359831,-0.867827 0,-0.0635 -0.0635,-0.126999 -0.127,-0.126999 z m -2.666979,0 c -0.0635,0 -0.127,0.0635 -0.127,0.126999 0,0.317497 0.127,0.634995 0.359831,0.867827 0.23283,0.232831 0.550328,0.35983 0.867825,0.35983 0.0635,0 0.127,-0.0635 0.127,-0.126999 0,-0.317498 -0.127,-0.634995 -0.359831,-0.867827 -0.23283,-0.232831 -0.550328,-0.35983 -0.867825,-0.35983 z m 2.666979,1.248824 c -0.317497,-0.02117 -0.634995,0.105832 -0.867826,0.338664 -0.232833,0.232832 -0.35983,0.550329 -0.35983,0.867827 0,0.0635 0.0635,0.126999 0.126997,0.126999 0.317497,0 0.634995,-0.105833 0.867828,-0.359831 0.232831,-0.232831 0.359831,-0.550329 0.359831,-0.867827 0,-0.0635 -0.0635,-0.105832 -0.127,-0.105832 z m -2.666979,0 c -0.0635,0 -0.127,0.04233 -0.127,0.126999 0,0.296331 0.127,0.613829 0.359831,0.84666 0.23283,0.253998 0.550328,0.359831 0.867825,0.359831 0.0635,0 0.127,-0.0635 0.127,-0.126999 0,-0.317498 -0.127,-0.613829 -0.359831,-0.867827 -0.23283,-0.232832 -0.550328,-0.359831 -0.867825,-0.338664 z m 1.269989,1.545155 c -0.105833,0 -0.169333,0.08467 -0.169333,0.190498 v 1.164158 c 0,0.105833 0.0635,0.190499 0.169333,0.190499 h 0.105834 c 0.10583,0 0.190497,-0.08467 0.190497,-0.190499 v -1.164158 c 0,-0.105832 -0.08467,-0.190498 -0.190497,-0.190498 z"
         id="path850" />
    </g>
  </g>
</svg>
